%TF.GenerationSoftware,KiCad,Pcbnew,10.0.0*%
%TF.CreationDate,2026-03-27T10:38:15+01:00*%
%TF.ProjectId,FPGA-Devel,46504741-2d44-4657-9665-6c2e6b696361,rev?*%
%TF.SameCoordinates,Original*%
%TF.FileFunction,Paste,Bot*%
%TF.FilePolarity,Positive*%
%FSLAX46Y46*%
G04 Gerber Fmt 4.6, Leading zero omitted, Abs format (unit mm)*
G04 Created by KiCad (PCBNEW 10.0.0) date 2026-03-27 10:38:15*
%MOMM*%
%LPD*%
G01*
G04 APERTURE LIST*
G04 Aperture macros list*
%AMRoundRect*
0 Rectangle with rounded corners*
0 $1 Rounding radius*
0 $2 $3 $4 $5 $6 $7 $8 $9 X,Y pos of 4 corners*
0 Add a 4 corners polygon primitive as box body*
4,1,4,$2,$3,$4,$5,$6,$7,$8,$9,$2,$3,0*
0 Add four circle primitives for the rounded corners*
1,1,$1+$1,$2,$3*
1,1,$1+$1,$4,$5*
1,1,$1+$1,$6,$7*
1,1,$1+$1,$8,$9*
0 Add four rect primitives between the rounded corners*
20,1,$1+$1,$2,$3,$4,$5,0*
20,1,$1+$1,$4,$5,$6,$7,0*
20,1,$1+$1,$6,$7,$8,$9,0*
20,1,$1+$1,$8,$9,$2,$3,0*%
G04 Aperture macros list end*
%ADD10RoundRect,0.135000X-0.135000X-0.185000X0.135000X-0.185000X0.135000X0.185000X-0.135000X0.185000X0*%
%ADD11RoundRect,0.125000X-0.687500X-0.125000X0.687500X-0.125000X0.687500X0.125000X-0.687500X0.125000X0*%
%ADD12RoundRect,0.135000X-0.185000X0.135000X-0.185000X-0.135000X0.185000X-0.135000X0.185000X0.135000X0*%
%ADD13RoundRect,0.135000X0.185000X-0.135000X0.185000X0.135000X-0.185000X0.135000X-0.185000X-0.135000X0*%
%ADD14RoundRect,0.140000X-0.170000X0.140000X-0.170000X-0.140000X0.170000X-0.140000X0.170000X0.140000X0*%
%ADD15RoundRect,0.225000X0.225000X0.250000X-0.225000X0.250000X-0.225000X-0.250000X0.225000X-0.250000X0*%
%ADD16RoundRect,0.140000X-0.021213X0.219203X-0.219203X0.021213X0.021213X-0.219203X0.219203X-0.021213X0*%
%ADD17RoundRect,0.250000X-0.650000X0.325000X-0.650000X-0.325000X0.650000X-0.325000X0.650000X0.325000X0*%
%ADD18RoundRect,0.225000X-0.250000X0.225000X-0.250000X-0.225000X0.250000X-0.225000X0.250000X0.225000X0*%
%ADD19RoundRect,0.140000X0.140000X0.170000X-0.140000X0.170000X-0.140000X-0.170000X0.140000X-0.170000X0*%
%ADD20RoundRect,0.150000X-0.150000X-0.425000X0.150000X-0.425000X0.150000X0.425000X-0.150000X0.425000X0*%
%ADD21RoundRect,0.075000X-0.075000X-0.500000X0.075000X-0.500000X0.075000X0.500000X-0.075000X0.500000X0*%
%ADD22RoundRect,0.250000X-0.840000X-0.750000X0.840000X-0.750000X0.840000X0.750000X-0.840000X0.750000X0*%
%ADD23C,2.000000*%
%ADD24RoundRect,0.135000X0.135000X0.185000X-0.135000X0.185000X-0.135000X-0.185000X0.135000X-0.185000X0*%
%ADD25RoundRect,0.140000X-0.140000X-0.170000X0.140000X-0.170000X0.140000X0.170000X-0.140000X0.170000X0*%
%ADD26RoundRect,0.140000X0.021213X-0.219203X0.219203X-0.021213X-0.021213X0.219203X-0.219203X0.021213X0*%
%ADD27RoundRect,0.140000X0.219203X0.021213X0.021213X0.219203X-0.219203X-0.021213X-0.021213X-0.219203X0*%
%ADD28RoundRect,0.140000X-0.219203X-0.021213X-0.021213X-0.219203X0.219203X0.021213X0.021213X0.219203X0*%
%ADD29RoundRect,0.150000X-0.150000X0.512500X-0.150000X-0.512500X0.150000X-0.512500X0.150000X0.512500X0*%
%ADD30RoundRect,0.225000X0.250000X-0.225000X0.250000X0.225000X-0.250000X0.225000X-0.250000X-0.225000X0*%
%ADD31RoundRect,0.250000X0.650000X-0.325000X0.650000X0.325000X-0.650000X0.325000X-0.650000X-0.325000X0*%
%ADD32RoundRect,0.140000X0.170000X-0.140000X0.170000X0.140000X-0.170000X0.140000X-0.170000X-0.140000X0*%
%ADD33RoundRect,0.225000X-0.225000X-0.250000X0.225000X-0.250000X0.225000X0.250000X-0.225000X0.250000X0*%
%ADD34R,1.500000X0.800000*%
%ADD35R,1.900000X1.400000*%
%ADD36R,1.400000X1.800000*%
G04 APERTURE END LIST*
D10*
%TO.C,R1004*%
X136654000Y-99949000D03*
X135634000Y-99949000D03*
%TD*%
D11*
%TO.C,U901*%
X49576500Y-94955000D03*
X49576500Y-94305000D03*
X49576500Y-93655000D03*
X49576500Y-93005000D03*
X53801500Y-93005000D03*
X53801500Y-93655000D03*
X53801500Y-94305000D03*
X53801500Y-94955000D03*
%TD*%
D12*
%TO.C,R406*%
X99060000Y-89152000D03*
X99060000Y-90172000D03*
%TD*%
D13*
%TO.C,R905*%
X46990000Y-93855000D03*
X46990000Y-92835000D03*
%TD*%
D14*
%TO.C,C1001*%
X82169000Y-96675000D03*
X82169000Y-97635000D03*
%TD*%
D13*
%TO.C,R411*%
X92710000Y-80012000D03*
X92710000Y-78992000D03*
%TD*%
D15*
%TO.C,C607*%
X94628000Y-110109000D03*
X93078000Y-110109000D03*
%TD*%
D16*
%TO.C,C608*%
X94609411Y-107760589D03*
X93930589Y-108439411D03*
%TD*%
D17*
%TO.C,C713*%
X81915000Y-109269000D03*
X81915000Y-112219000D03*
%TD*%
D13*
%TO.C,R1002*%
X69977000Y-97284000D03*
X69977000Y-96264000D03*
%TD*%
D12*
%TO.C,R426*%
X126365000Y-97915000D03*
X126365000Y-98935000D03*
%TD*%
D10*
%TO.C,R453*%
X87120000Y-82042000D03*
X88140000Y-82042000D03*
%TD*%
D18*
%TO.C,C706*%
X99520000Y-100444000D03*
X99520000Y-101994000D03*
%TD*%
D13*
%TO.C,R502*%
X127762000Y-130685000D03*
X127762000Y-129665000D03*
%TD*%
D19*
%TO.C,C809*%
X93444000Y-124841000D03*
X92484000Y-124841000D03*
%TD*%
D12*
%TO.C,R429*%
X133985000Y-96010000D03*
X133985000Y-97030000D03*
%TD*%
%TO.C,R422*%
X116205000Y-100455000D03*
X116205000Y-101475000D03*
%TD*%
D10*
%TO.C,R811*%
X76325000Y-124587000D03*
X77345000Y-124587000D03*
%TD*%
D20*
%TO.C,J404*%
X85700000Y-66545000D03*
X86500000Y-66545000D03*
D21*
X87650000Y-66545000D03*
X88650000Y-66545000D03*
X89150000Y-66545000D03*
X90150000Y-66545000D03*
D20*
X91300000Y-66545000D03*
X92100000Y-66545000D03*
X92100000Y-66545000D03*
X91300000Y-66545000D03*
D21*
X90650000Y-66545000D03*
X89650000Y-66545000D03*
X88150000Y-66545000D03*
X87150000Y-66545000D03*
D20*
X86500000Y-66545000D03*
X85700000Y-66545000D03*
D22*
X83790000Y-62040000D03*
X83790000Y-65970000D03*
X94010000Y-62040000D03*
X94010000Y-65970000D03*
D23*
X94869000Y-62040000D03*
%TD*%
D10*
%TO.C,R813*%
X76325000Y-122047000D03*
X77345000Y-122047000D03*
%TD*%
D12*
%TO.C,R808*%
X90297000Y-126744000D03*
X90297000Y-127764000D03*
%TD*%
%TO.C,R439*%
X109855000Y-119632000D03*
X109855000Y-120652000D03*
%TD*%
D10*
%TO.C,R602*%
X87501000Y-101092000D03*
X88521000Y-101092000D03*
%TD*%
D24*
%TO.C,R430*%
X46484000Y-80010000D03*
X45464000Y-80010000D03*
%TD*%
D25*
%TO.C,C903*%
X55654000Y-94996000D03*
X56614000Y-94996000D03*
%TD*%
D13*
%TO.C,R507*%
X128778000Y-130685000D03*
X128778000Y-129665000D03*
%TD*%
D12*
%TO.C,R428*%
X131445000Y-96645000D03*
X131445000Y-97665000D03*
%TD*%
D24*
%TO.C,R601*%
X88521000Y-99949000D03*
X87501000Y-99949000D03*
%TD*%
D14*
%TO.C,C816*%
X87249000Y-126774000D03*
X87249000Y-127734000D03*
%TD*%
D10*
%TO.C,R451*%
X92200000Y-82042000D03*
X93220000Y-82042000D03*
%TD*%
D26*
%TO.C,C701*%
X94180589Y-102939411D03*
X94859411Y-102260589D03*
%TD*%
D27*
%TO.C,C715*%
X98359411Y-99439411D03*
X97680589Y-98760589D03*
%TD*%
D14*
%TO.C,C808*%
X86233000Y-126774000D03*
X86233000Y-127734000D03*
%TD*%
%TO.C,C817*%
X88265000Y-126774000D03*
X88265000Y-127734000D03*
%TD*%
D24*
%TO.C,R503*%
X104142000Y-100838000D03*
X103122000Y-100838000D03*
%TD*%
D10*
%TO.C,R443*%
X77341000Y-115951000D03*
X78361000Y-115951000D03*
%TD*%
D12*
%TO.C,R444*%
X64770000Y-118997000D03*
X64770000Y-120017000D03*
%TD*%
D14*
%TO.C,C806*%
X92329000Y-126774000D03*
X92329000Y-127734000D03*
%TD*%
D12*
%TO.C,R424*%
X121285000Y-99185000D03*
X121285000Y-100205000D03*
%TD*%
D13*
%TO.C,R410*%
X90170000Y-90172000D03*
X90170000Y-89152000D03*
%TD*%
D10*
%TO.C,R605*%
X83056000Y-101092000D03*
X84076000Y-101092000D03*
%TD*%
D12*
%TO.C,R405*%
X93980000Y-89152000D03*
X93980000Y-90172000D03*
%TD*%
D13*
%TO.C,R906*%
X55626000Y-91950000D03*
X55626000Y-90930000D03*
%TD*%
D12*
%TO.C,R425*%
X123825000Y-98550000D03*
X123825000Y-99570000D03*
%TD*%
D10*
%TO.C,R812*%
X76325000Y-123317000D03*
X77345000Y-123317000D03*
%TD*%
D14*
%TO.C,C807*%
X92075000Y-119789000D03*
X92075000Y-120749000D03*
%TD*%
D28*
%TO.C,C704*%
X96680589Y-102760589D03*
X97359411Y-103439411D03*
%TD*%
D19*
%TO.C,C609*%
X101953000Y-110363000D03*
X100993000Y-110363000D03*
%TD*%
D10*
%TO.C,R435*%
X131316000Y-77470000D03*
X132336000Y-77470000D03*
%TD*%
D12*
%TO.C,R427*%
X128905000Y-97280000D03*
X128905000Y-98300000D03*
%TD*%
D14*
%TO.C,C604*%
X99314000Y-97120000D03*
X99314000Y-98080000D03*
%TD*%
D13*
%TO.C,R413*%
X95250000Y-90172000D03*
X95250000Y-89152000D03*
%TD*%
D29*
%TO.C,Q405*%
X86680000Y-83444500D03*
X88580000Y-83444500D03*
X87630000Y-85719500D03*
%TD*%
D14*
%TO.C,C813*%
X87503000Y-119916000D03*
X87503000Y-120876000D03*
%TD*%
D12*
%TO.C,R423*%
X118745000Y-99820000D03*
X118745000Y-100840000D03*
%TD*%
D24*
%TO.C,R501*%
X104142000Y-102870000D03*
X103122000Y-102870000D03*
%TD*%
D13*
%TO.C,R1001*%
X70993000Y-97284000D03*
X70993000Y-96264000D03*
%TD*%
%TO.C,R402*%
X80010000Y-80012000D03*
X80010000Y-78992000D03*
%TD*%
D25*
%TO.C,C812*%
X87912000Y-122174000D03*
X88872000Y-122174000D03*
%TD*%
D10*
%TO.C,R452*%
X97280000Y-82042000D03*
X98300000Y-82042000D03*
%TD*%
D17*
%TO.C,C710*%
X84328000Y-109269000D03*
X84328000Y-112219000D03*
%TD*%
D14*
%TO.C,C1002*%
X73025000Y-96294000D03*
X73025000Y-97254000D03*
%TD*%
D13*
%TO.C,R409*%
X85090000Y-90172000D03*
X85090000Y-89152000D03*
%TD*%
%TO.C,R442*%
X57023000Y-115953000D03*
X57023000Y-114933000D03*
%TD*%
D17*
%TO.C,C606*%
X93853000Y-111682000D03*
X93853000Y-114632000D03*
%TD*%
D13*
%TO.C,R441*%
X64770000Y-108333000D03*
X64770000Y-107313000D03*
%TD*%
D18*
%TO.C,C814*%
X88773000Y-119240000D03*
X88773000Y-120790000D03*
%TD*%
D30*
%TO.C,C802*%
X90805000Y-124981000D03*
X90805000Y-123431000D03*
%TD*%
D19*
%TO.C,C1003*%
X134719000Y-99949000D03*
X133759000Y-99949000D03*
%TD*%
D24*
%TO.C,R418*%
X62994000Y-92710000D03*
X61974000Y-92710000D03*
%TD*%
D12*
%TO.C,R414*%
X123317000Y-118362000D03*
X123317000Y-119382000D03*
%TD*%
D27*
%TO.C,C705*%
X98359411Y-102939411D03*
X97680589Y-102260589D03*
%TD*%
D24*
%TO.C,R902*%
X50802000Y-91694000D03*
X49782000Y-91694000D03*
%TD*%
D31*
%TO.C,C709*%
X107061000Y-99138000D03*
X107061000Y-96188000D03*
%TD*%
D30*
%TO.C,C605*%
X102870000Y-94628000D03*
X102870000Y-93078000D03*
%TD*%
D12*
%TO.C,R407*%
X88900000Y-89152000D03*
X88900000Y-90172000D03*
%TD*%
D24*
%TO.C,R908*%
X56644000Y-93980000D03*
X55624000Y-93980000D03*
%TD*%
D10*
%TO.C,R436*%
X131316000Y-74930000D03*
X132336000Y-74930000D03*
%TD*%
D29*
%TO.C,Q401*%
X79060000Y-83444500D03*
X80960000Y-83444500D03*
X80010000Y-85719500D03*
%TD*%
D13*
%TO.C,R801*%
X93345000Y-127764000D03*
X93345000Y-126744000D03*
%TD*%
%TO.C,R504*%
X123317000Y-128272000D03*
X123317000Y-127252000D03*
%TD*%
D32*
%TO.C,C602*%
X101520000Y-94580000D03*
X101520000Y-93620000D03*
%TD*%
D27*
%TO.C,C717*%
X96359411Y-99439411D03*
X95680589Y-98760589D03*
%TD*%
D19*
%TO.C,C815*%
X75029000Y-124587000D03*
X74069000Y-124587000D03*
%TD*%
D10*
%TO.C,R606*%
X83056000Y-98933000D03*
X84076000Y-98933000D03*
%TD*%
D33*
%TO.C,C707*%
X100995000Y-99568000D03*
X102545000Y-99568000D03*
%TD*%
D30*
%TO.C,C401*%
X90170000Y-83706000D03*
X90170000Y-82156000D03*
%TD*%
D10*
%TO.C,R450*%
X82929000Y-82042000D03*
X83949000Y-82042000D03*
%TD*%
D24*
%TO.C,R432*%
X46484000Y-74930000D03*
X45464000Y-74930000D03*
%TD*%
D16*
%TO.C,C703*%
X97359411Y-100760589D03*
X96680589Y-101439411D03*
%TD*%
D10*
%TO.C,R434*%
X131316000Y-80010000D03*
X132336000Y-80010000D03*
%TD*%
D27*
%TO.C,C601*%
X95081411Y-94954411D03*
X94402589Y-94275589D03*
%TD*%
D13*
%TO.C,R903*%
X46990000Y-95760000D03*
X46990000Y-94740000D03*
%TD*%
D24*
%TO.C,R604*%
X79123000Y-98933000D03*
X78103000Y-98933000D03*
%TD*%
D25*
%TO.C,C603*%
X103152000Y-101854000D03*
X104112000Y-101854000D03*
%TD*%
D10*
%TO.C,R437*%
X131316000Y-72390000D03*
X132336000Y-72390000D03*
%TD*%
D12*
%TO.C,R404*%
X81280000Y-89152000D03*
X81280000Y-90172000D03*
%TD*%
D29*
%TO.C,Q404*%
X96840000Y-83444500D03*
X98740000Y-83444500D03*
X97790000Y-85719500D03*
%TD*%
D32*
%TO.C,C901*%
X48006000Y-93825000D03*
X48006000Y-92865000D03*
%TD*%
D13*
%TO.C,R401*%
X90170000Y-80012000D03*
X90170000Y-78992000D03*
%TD*%
D24*
%TO.C,R431*%
X46484000Y-77470000D03*
X45464000Y-77470000D03*
%TD*%
D12*
%TO.C,R415*%
X96139000Y-65530000D03*
X96139000Y-66550000D03*
%TD*%
D24*
%TO.C,R904*%
X56644000Y-92964000D03*
X55624000Y-92964000D03*
%TD*%
%TO.C,R445*%
X121668000Y-62103000D03*
X120648000Y-62103000D03*
%TD*%
D15*
%TO.C,C714*%
X88024000Y-103251000D03*
X86474000Y-103251000D03*
%TD*%
D12*
%TO.C,R1003*%
X81153000Y-96645000D03*
X81153000Y-97665000D03*
%TD*%
D13*
%TO.C,R408*%
X97790000Y-80012000D03*
X97790000Y-78992000D03*
%TD*%
D12*
%TO.C,R448*%
X117094000Y-89152000D03*
X117094000Y-90172000D03*
%TD*%
%TO.C,R438*%
X104902000Y-119632000D03*
X104902000Y-120652000D03*
%TD*%
D25*
%TO.C,C610*%
X99088000Y-110363000D03*
X100048000Y-110363000D03*
%TD*%
D30*
%TO.C,C708*%
X109093000Y-99073000D03*
X109093000Y-97523000D03*
%TD*%
D32*
%TO.C,C902*%
X56642000Y-91920000D03*
X56642000Y-90960000D03*
%TD*%
D18*
%TO.C,C711*%
X86360000Y-110731000D03*
X86360000Y-112281000D03*
%TD*%
D12*
%TO.C,R403*%
X78740000Y-89152000D03*
X78740000Y-90172000D03*
%TD*%
D28*
%TO.C,C712*%
X94930589Y-104510589D03*
X95609411Y-105189411D03*
%TD*%
D10*
%TO.C,R809*%
X82929000Y-121158000D03*
X83949000Y-121158000D03*
%TD*%
D29*
%TO.C,Q402*%
X82489000Y-83444500D03*
X84389000Y-83444500D03*
X83439000Y-85719500D03*
%TD*%
D26*
%TO.C,C611*%
X94400589Y-106669411D03*
X95079411Y-105990589D03*
%TD*%
D14*
%TO.C,C810*%
X93091000Y-119789000D03*
X93091000Y-120749000D03*
%TD*%
D30*
%TO.C,C804*%
X89281000Y-124981000D03*
X89281000Y-123431000D03*
%TD*%
D13*
%TO.C,R907*%
X48006000Y-95760000D03*
X48006000Y-94740000D03*
%TD*%
D29*
%TO.C,Q403*%
X91760000Y-83444500D03*
X93660000Y-83444500D03*
X92710000Y-85719500D03*
%TD*%
D10*
%TO.C,R603*%
X83056000Y-102108000D03*
X84076000Y-102108000D03*
%TD*%
D13*
%TO.C,R440*%
X104902000Y-130431000D03*
X104902000Y-129411000D03*
%TD*%
D14*
%TO.C,C811*%
X90043000Y-119789000D03*
X90043000Y-120749000D03*
%TD*%
D24*
%TO.C,R433*%
X46484000Y-72390000D03*
X45464000Y-72390000D03*
%TD*%
D10*
%TO.C,R449*%
X79500000Y-82042000D03*
X80520000Y-82042000D03*
%TD*%
D14*
%TO.C,C803*%
X91313000Y-126774000D03*
X91313000Y-127734000D03*
%TD*%
D28*
%TO.C,C716*%
X94680589Y-99760589D03*
X95359411Y-100439411D03*
%TD*%
D10*
%TO.C,R446*%
X56005000Y-61976000D03*
X57025000Y-61976000D03*
%TD*%
D12*
%TO.C,R447*%
X130302000Y-84709000D03*
X130302000Y-85729000D03*
%TD*%
D10*
%TO.C,R810*%
X82929000Y-122682000D03*
X83949000Y-122682000D03*
%TD*%
D14*
%TO.C,C805*%
X89281000Y-126774000D03*
X89281000Y-127734000D03*
%TD*%
D24*
%TO.C,R901*%
X52961000Y-91694000D03*
X51941000Y-91694000D03*
%TD*%
D34*
%TO.C,J1001*%
X133357500Y-110725000D03*
X132957500Y-109625000D03*
X133357500Y-108525000D03*
X133557500Y-107425000D03*
X133357500Y-106325000D03*
X133557500Y-105225000D03*
X133357500Y-104125000D03*
X133357500Y-103025000D03*
D35*
X136207500Y-102235000D03*
X137207500Y-115385000D03*
D36*
X123057500Y-103835000D03*
X123057500Y-109535000D03*
%TD*%
D13*
%TO.C,R412*%
X82550000Y-80012000D03*
X82550000Y-78992000D03*
%TD*%
D28*
%TO.C,C702*%
X95680589Y-103760589D03*
X96359411Y-104439411D03*
%TD*%
M02*
