M48
; DRILL file KiCad 10.0.0 date 2026-03-27T10:38:08
; FORMAT={-:-/ absolute / metric / decimal}
; #@! TF.CreationDate,2026-03-27T10:38:08+01:00
; #@! TF.GenerationSoftware,Kicad,Pcbnew,10.0.0
; #@! TF.FileFunction,Plated,1,4,PTH
FMAT,2
METRIC
; #@! TA.AperFunction,Plated,PTH,ViaDrill
T1C0.200
; #@! TA.AperFunction,Plated,PTH,ViaDrill
T2C0.400
; #@! TA.AperFunction,Plated,PTH,ComponentDrill
T3C0.500
; #@! TA.AperFunction,Plated,PTH,ComponentDrill
T4C0.600
; #@! TA.AperFunction,Plated,PTH,ComponentDrill
T5C0.700
; #@! TA.AperFunction,Plated,PTH,ComponentDrill
T6C0.762
; #@! TA.AperFunction,Plated,PTH,ComponentDrill
T7C0.800
; #@! TA.AperFunction,Plated,PTH,ComponentDrill
T8C0.990
; #@! TA.AperFunction,Plated,PTH,ComponentDrill
T9C1.000
; #@! TA.AperFunction,Plated,PTH,ComponentDrill
T10C1.100
; #@! TA.AperFunction,Plated,PTH,ComponentDrill
T11C1.200
; #@! TA.AperFunction,Plated,PTH,ComponentDrill
T12C1.300
; #@! TA.AperFunction,Plated,PTH,ComponentDrill
T13C1.500
; #@! TA.AperFunction,Plated,PTH,ComponentDrill
T14C3.200
%
G90
G05
T1
X39.725Y-69.02
X39.751Y-132.06
X45.44Y-62.035
X45.72Y-138.049
X47.244Y-96.52
X48.641Y-95.758
X49.657Y-96.52
X51.689Y-130.683
X52.832Y-134.366
X53.02Y-135.316
X53.594Y-91.694
X54.356Y-90.932
X54.737Y-136.017
X54.991Y-94.305
X54.991Y-94.955
X57.277Y-92.964
X57.277Y-93.98
X57.404Y-134.747
X57.658Y-128.778
X57.658Y-129.54
X57.658Y-130.302
X57.658Y-131.064
X57.658Y-131.826
X58.42Y-112.903
X58.928Y-115.062
X59.309Y-112.903
X60.706Y-105.918
X63.18Y-135.316
X64.008Y-120.015
X64.135Y-105.918
X64.897Y-136.017
X65.405Y-105.156
X66.675Y-104.648
X67.437Y-101.473
X67.564Y-134.747
X67.818Y-128.778
X67.818Y-129.54
X67.818Y-130.302
X67.818Y-131.064
X67.818Y-131.826
X69.469Y-104.648
X69.977Y-100.203
X70.993Y-98.933
X71.374Y-91.694
X72.009Y-98.298
X72.136Y-97.409
X73.66Y-96.52
X74.168Y-89.789
X75.057Y-136.017
X75.184Y-97.409
X75.692Y-124.587
X76.708Y-89.789
X76.708Y-120.777
X76.962Y-115.062
X77.978Y-122.047
X77.978Y-123.317
X77.978Y-124.587
X77.978Y-128.778
X77.978Y-129.54
X77.978Y-130.302
X77.978Y-131.064
X77.978Y-131.826
X79.121Y-95.25
X80.01Y-97.663
X80.01Y-98.933
X80.01Y-100.203
X80.96Y-82.482
X81.788Y-101.473
X82.042Y-121.158
X82.042Y-122.682
X82.169Y-91.44
X82.296Y-98.933
X82.296Y-100.203
X82.804Y-89.535
X83.439Y-96.774
X84.328Y-96.774
X84.389Y-82.482
X84.582Y-59.817
X85.09Y-91.44
X85.344Y-103.378
X85.471Y-102.108
X85.471Y-120.523
X85.471Y-126.365
X85.598Y-104.14
X86.233Y-99.73
X86.36Y-95.885
X86.36Y-98.552
X86.36Y-106.045
X86.614Y-101.092
X86.741Y-104.775
X86.741Y-127.508
X86.883Y-99.712
X87.249Y-119.507
X87.249Y-122.174
X87.584Y-125.961
X87.63Y-64.77
X88.011Y-119.24
X88.138Y-97.663
X88.265Y-125.984
X88.519Y-108.585
X88.646Y-67.564
X88.646Y-103.251
X88.773Y-128.143
X89.154Y-65.532
X89.281Y-83.566
X89.281Y-94.361
X89.281Y-125.984
X90.043Y-119.126
X90.095Y-121.825
X90.095Y-123.275
X90.17Y-81.28
X90.297Y-125.984
X90.52Y-98.6
X90.52Y-99.712
X90.52Y-102.6
X90.805Y-64.77
X91.313Y-125.984
X91.52Y-96.627
X91.52Y-97.6
X91.52Y-98.6
X91.52Y-99.6
X91.52Y-104.6
X91.52Y-105.518
X91.52Y-106.6
X91.545Y-121.825
X91.545Y-123.275
X92.456Y-125.984
X92.52Y-96.6
X92.52Y-97.6
X92.52Y-101.6
X92.52Y-104.6
X92.52Y-105.6
X92.52Y-106.6
X92.583Y-119.126
X92.837Y-113.03
X92.837Y-115.57
X93.218Y-59.817
X93.345Y-128.524
X93.37Y-96.6
X93.472Y-125.984
X93.52Y-97.6
X93.52Y-98.6
X93.52Y-100.6
X93.52Y-102.6
X93.52Y-104.6
X93.52Y-105.6
X93.66Y-82.482
X93.853Y-93.472
X94.234Y-124.841
X94.361Y-108.839
X94.361Y-119.38
X94.42Y-96.6
X94.52Y-97.6
X94.52Y-98.6
X94.52Y-100.6
X94.52Y-103.6
X94.615Y-110.871
X95.011Y-108.833
X95.47Y-95.631
X95.47Y-96.6
X95.52Y-97.6
X95.52Y-99.6
X95.52Y-101.6
X95.52Y-106.6
X95.52Y-107.6
X96.52Y-96.6
X96.52Y-97.6
X96.52Y-98.6
X96.52Y-100.6
X96.52Y-103.6
X96.52Y-105.6
X97.52Y-97.6
X97.52Y-99.6
X97.52Y-101.6
X97.52Y-104.6
X97.52Y-106.6
X97.536Y-127.0
X97.57Y-96.6
X98.171Y-125.222
X98.52Y-97.6
X98.52Y-98.6
X98.52Y-100.6
X98.52Y-103.6
X98.52Y-105.6
X98.52Y-106.6
X98.52Y-107.6
X98.52Y-108.6
X98.62Y-96.6
X98.74Y-82.482
X98.806Y-125.73
X99.06Y-109.601
X99.441Y-99.52
X99.441Y-126.238
X99.52Y-96.6
X99.52Y-98.6
X99.52Y-104.6
X99.52Y-105.6
X99.52Y-106.6
X99.568Y-63.754
X99.568Y-64.77
X99.822Y-65.786
X99.822Y-68.453
X100.351Y-103.6
X100.52Y-98.6
X100.52Y-100.6
X100.52Y-102.6
X100.52Y-104.6
X100.52Y-105.6
X100.52Y-106.65
X100.57Y-96.6
X101.473Y-91.186
X101.52Y-95.6
X101.52Y-96.6
X101.52Y-97.6
X101.52Y-98.6
X101.52Y-100.6
X101.52Y-102.6
X101.52Y-105.6
X101.52Y-106.65
X102.52Y-95.6
X102.52Y-96.573
X102.52Y-100.6
X102.52Y-101.6
X102.87Y-110.363
X103.505Y-110.871
X104.14Y-91.186
X104.267Y-111.633
X104.775Y-99.949
X104.902Y-91.313
X104.902Y-101.837
X105.156Y-93.345
X105.6Y-104.14
X105.664Y-106.045
X105.791Y-110.488
X106.045Y-109.855
X106.045Y-111.76
X106.299Y-109.22
X106.299Y-111.125
X106.553Y-108.585
X106.68Y-102.997
X107.569Y-102.997
X108.458Y-102.997
X109.093Y-96.139
X109.855Y-84.709
X110.236Y-100.076
X114.3Y-91.44
X115.062Y-103.632
X117.094Y-99.695
X117.221Y-98.806
X117.221Y-102.362
X119.38Y-97.79
X121.92Y-97.765
X122.555Y-99.441
X122.555Y-119.38
X122.555Y-128.27
X125.73Y-107.188
X127.381Y-108.331
X127.508Y-97.155
X127.762Y-108.966
X127.762Y-129.032
X127.889Y-131.699
X128.143Y-109.601
X128.778Y-131.699
X129.775Y-96.12
X130.429Y-105.41
X132.08Y-137.922
X132.207Y-95.631
X132.435Y-62.035
X132.461Y-96.393
X134.747Y-100.584
X135.636Y-106.553
X137.922Y-132.08
X138.15Y-69.02
T2
X40.005Y-83.82
X40.005Y-85.09
X40.005Y-86.36
X41.275Y-84.455
X41.275Y-85.725
X42.545Y-83.82
X42.545Y-85.09
X42.545Y-86.36
X43.815Y-84.455
X43.815Y-85.725
X50.8Y-133.416
X60.96Y-133.416
X71.247Y-133.416
X81.788Y-134.62
X81.915Y-110.744
X84.328Y-110.742
X86.36Y-68.453
X87.63Y-130.429
X91.44Y-68.326
X92.837Y-130.429
X105.664Y-99.187
T3
X40.5Y-66.06
X40.5Y-135.06
X41.203Y-64.363
X41.203Y-67.757
X41.203Y-133.363
X41.203Y-136.757
X42.9Y-63.66
X42.9Y-68.46
X42.9Y-132.66
X42.9Y-137.46
X44.597Y-64.363
X44.597Y-67.757
X44.597Y-133.363
X44.597Y-136.757
X45.3Y-66.06
X45.3Y-135.06
X132.5Y-66.06
X132.5Y-135.06
X133.203Y-64.363
X133.203Y-67.757
X133.203Y-133.363
X133.203Y-136.757
X134.9Y-63.66
X134.9Y-68.46
X134.9Y-132.66
X134.9Y-137.46
X136.597Y-64.363
X136.597Y-67.757
X136.597Y-133.363
X136.597Y-136.757
X137.3Y-66.06
X137.3Y-135.06
T5
X80.01Y-77.438
X80.01Y-87.597
X82.55Y-77.438
X82.55Y-87.597
X85.09Y-77.438
X85.09Y-87.597
X87.63Y-77.438
X87.63Y-87.597
X90.17Y-87.597
X92.71Y-77.438
X92.71Y-87.597
X95.25Y-87.597
X97.79Y-77.438
X97.79Y-87.597
T6
X90.17Y-77.438
X95.25Y-77.438
T7
X40.64Y-72.39
X40.64Y-74.93
X40.64Y-77.47
X40.64Y-80.01
X48.26Y-72.39
X48.26Y-74.93
X48.26Y-77.47
X48.26Y-80.01
X129.54Y-72.39
X129.54Y-74.93
X129.54Y-77.47
X129.54Y-80.01
X137.16Y-72.39
X137.16Y-74.93
X137.16Y-77.47
X137.16Y-80.01
T8
X48.542Y-63.165
X52.888Y-62.0
X124.832Y-62.172
X129.179Y-63.337
T9
X41.402Y-103.739
X41.402Y-107.061
X41.402Y-110.363
X41.402Y-113.665
X43.18Y-124.46
X43.975Y-91.462
X43.975Y-93.962
X43.975Y-96.462
X46.99Y-124.46
X50.205Y-85.232
X50.8Y-124.46
X52.705Y-85.232
X54.61Y-124.46
X55.205Y-85.232
X58.42Y-124.46
X59.691Y-69.406
X59.691Y-71.945
X62.231Y-69.406
X62.231Y-71.945
X64.772Y-69.406
X64.772Y-71.945
X67.311Y-69.406
X67.311Y-71.945
X69.852Y-69.406
X69.852Y-71.945
X72.391Y-69.406
X72.391Y-71.945
X76.2Y-71.374
X78.74Y-71.374
X82.551Y-69.406
X82.551Y-71.945
X85.091Y-69.406
X85.091Y-71.945
X87.632Y-69.406
X87.632Y-71.945
X90.171Y-69.406
X90.171Y-71.945
X92.712Y-69.406
X92.712Y-71.945
X95.251Y-69.406
X95.251Y-71.945
X104.855Y-117.58
X104.855Y-132.08
X105.411Y-69.406
X105.411Y-71.945
X107.355Y-117.58
X107.951Y-69.406
X107.951Y-71.945
X109.855Y-117.58
X109.855Y-132.08
X110.492Y-69.406
X110.492Y-71.945
X113.031Y-69.406
X113.031Y-71.945
X115.572Y-69.406
X115.572Y-71.945
X118.111Y-69.406
X118.111Y-71.945
T10
X53.9Y-111.415
X53.9Y-115.915
X60.4Y-111.415
X60.4Y-115.915
X61.52Y-103.795
X61.52Y-108.295
X61.52Y-119.035
X61.52Y-123.535
X68.02Y-103.795
X68.02Y-108.295
X68.02Y-119.035
X68.02Y-123.535
X69.14Y-111.415
X69.14Y-115.915
X75.64Y-111.415
X75.64Y-115.915
X113.59Y-89.19
X113.59Y-93.69
X119.94Y-118.4
X119.94Y-122.9
X119.94Y-127.29
X119.94Y-131.79
X120.09Y-89.19
X120.09Y-93.69
X126.44Y-118.4
X126.44Y-122.9
X126.44Y-127.29
X126.44Y-131.79
X126.925Y-84.745
X126.925Y-89.245
X133.425Y-84.745
X133.425Y-89.245
T11
X58.455Y-90.712
X58.455Y-97.212
X62.955Y-90.712
X62.955Y-97.212
T12
X47.969Y-65.896
X54.74Y-64.082
X122.971Y-64.251
X129.742Y-66.066
T13
X47.705Y-87.637
X47.705Y-100.287
X57.705Y-87.637
X57.705Y-100.287
T14
X42.9Y-66.06
X42.9Y-135.06
X134.9Y-66.06
X134.9Y-135.06
T4
G00X84.58Y-61.39
M15
G01X84.58Y-62.19
M16
G05
G00X84.58Y-65.42
M15
G01X84.58Y-66.52
M16
G05
G00X85.85Y-131.727
M15
G01X85.85Y-132.827
M16
G05
G00X85.85Y-136.057
M15
G01X85.85Y-136.857
M16
G05
G00X93.22Y-61.39
M15
G01X93.22Y-62.19
M16
G05
G00X93.22Y-65.42
M15
G01X93.22Y-66.52
M16
G05
G00X94.49Y-131.727
M15
G01X94.49Y-132.827
M16
G05
G00X94.49Y-136.057
M15
G01X94.49Y-136.857
M16
G05
T13
G00X101.755Y-124.43
M15
G01X101.755Y-125.73
M16
G05
G00X112.955Y-124.43
M15
G01X112.955Y-125.73
M16
G05
M30
