%TF.GenerationSoftware,KiCad,Pcbnew,10.0.0*%
%TF.CreationDate,2026-03-27T10:38:15+01:00*%
%TF.ProjectId,FPGA-Devel,46504741-2d44-4657-9665-6c2e6b696361,rev?*%
%TF.SameCoordinates,Original*%
%TF.FileFunction,Soldermask,Top*%
%TF.FilePolarity,Negative*%
%FSLAX46Y46*%
G04 Gerber Fmt 4.6, Leading zero omitted, Abs format (unit mm)*
G04 Created by KiCad (PCBNEW 10.0.0) date 2026-03-27 10:38:15*
%MOMM*%
%LPD*%
G01*
G04 APERTURE LIST*
G04 Aperture macros list*
%AMRoundRect*
0 Rectangle with rounded corners*
0 $1 Rounding radius*
0 $2 $3 $4 $5 $6 $7 $8 $9 X,Y pos of 4 corners*
0 Add a 4 corners polygon primitive as box body*
4,1,4,$2,$3,$4,$5,$6,$7,$8,$9,$2,$3,0*
0 Add four circle primitives for the rounded corners*
1,1,$1+$1,$2,$3*
1,1,$1+$1,$4,$5*
1,1,$1+$1,$6,$7*
1,1,$1+$1,$8,$9*
0 Add four rect primitives between the rounded corners*
20,1,$1+$1,$2,$3,$4,$5,0*
20,1,$1+$1,$4,$5,$6,$7,0*
20,1,$1+$1,$6,$7,$8,$9,0*
20,1,$1+$1,$8,$9,$2,$3,0*%
G04 Aperture macros list end*
%ADD10R,2.000000X2.000000*%
%ADD11C,2.000000*%
%ADD12R,2.000000X3.200000*%
%ADD13C,0.800000*%
%ADD14C,6.400000*%
%ADD15RoundRect,0.218750X0.218750X0.256250X-0.218750X0.256250X-0.218750X-0.256250X0.218750X-0.256250X0*%
%ADD16RoundRect,0.250000X-0.650000X0.325000X-0.650000X-0.325000X0.650000X-0.325000X0.650000X0.325000X0*%
%ADD17RoundRect,0.140000X-0.170000X0.140000X-0.170000X-0.140000X0.170000X-0.140000X0.170000X0.140000X0*%
%ADD18RoundRect,0.135000X0.135000X0.185000X-0.135000X0.185000X-0.135000X-0.185000X0.135000X-0.185000X0*%
%ADD19RoundRect,0.150000X0.512500X0.150000X-0.512500X0.150000X-0.512500X-0.150000X0.512500X-0.150000X0*%
%ADD20RoundRect,0.218750X-0.256250X0.218750X-0.256250X-0.218750X0.256250X-0.218750X0.256250X0.218750X0*%
%ADD21RoundRect,0.218750X-0.301559X0.150260X-0.195718X-0.274245X0.301559X-0.150260X0.195718X0.274245X0*%
%ADD22RoundRect,0.135000X-0.185000X0.135000X-0.185000X-0.135000X0.185000X-0.135000X0.185000X0.135000X0*%
%ADD23R,1.700000X1.700000*%
%ADD24O,1.700000X1.700000*%
%ADD25RoundRect,0.135000X0.185000X-0.135000X0.185000X0.135000X-0.185000X0.135000X-0.185000X-0.135000X0*%
%ADD26RoundRect,0.135000X-0.135000X-0.185000X0.135000X-0.185000X0.135000X0.185000X-0.135000X0.185000X0*%
%ADD27R,1.500000X3.600000*%
%ADD28C,1.700000*%
%ADD29C,0.500000*%
%ADD30RoundRect,0.218750X0.256250X-0.218750X0.256250X0.218750X-0.256250X0.218750X-0.256250X-0.218750X0*%
%ADD31RoundRect,0.250000X0.300000X-0.400000X0.300000X0.400000X-0.300000X0.400000X-0.300000X-0.400000X0*%
%ADD32RoundRect,0.375000X0.375000X-0.375000X0.375000X0.375000X-0.375000X0.375000X-0.375000X-0.375000X0*%
%ADD33C,1.500000*%
%ADD34C,1.524000*%
%ADD35RoundRect,0.150000X-0.825000X-0.150000X0.825000X-0.150000X0.825000X0.150000X-0.825000X0.150000X0*%
%ADD36R,1.600000X1.600000*%
%ADD37O,1.600000X1.600000*%
%ADD38RoundRect,0.250000X-0.300000X0.400000X-0.300000X-0.400000X0.300000X-0.400000X0.300000X0.400000X0*%
%ADD39C,0.650000*%
%ADD40RoundRect,0.150000X-0.150000X-0.425000X0.150000X-0.425000X0.150000X0.425000X-0.150000X0.425000X0*%
%ADD41RoundRect,0.075000X-0.075000X-0.500000X0.075000X-0.500000X0.075000X0.500000X-0.075000X0.500000X0*%
%ADD42RoundRect,0.250000X-0.840000X-0.750000X0.840000X-0.750000X0.840000X0.750000X-0.840000X0.750000X0*%
%ADD43RoundRect,0.250000X-0.250000X-0.800000X0.250000X-0.800000X0.250000X0.800000X-0.250000X0.800000X0*%
%ADD44RoundRect,0.250000X-0.250000X-0.650000X0.250000X-0.650000X0.250000X0.650000X-0.250000X0.650000X0*%
%ADD45RoundRect,0.150000X0.825000X0.150000X-0.825000X0.150000X-0.825000X-0.150000X0.825000X-0.150000X0*%
%ADD46RoundRect,0.150000X-0.800000X-0.150000X0.800000X-0.150000X0.800000X0.150000X-0.800000X0.150000X0*%
%ADD47C,1.750000*%
%ADD48C,2.200000*%
%ADD49RoundRect,0.062500X0.062500X-0.337500X0.062500X0.337500X-0.062500X0.337500X-0.062500X-0.337500X0*%
%ADD50RoundRect,0.062500X0.337500X-0.062500X0.337500X0.062500X-0.337500X0.062500X-0.337500X-0.062500X0*%
%ADD51R,4.350000X4.350000*%
%ADD52C,2.100000*%
G04 APERTURE END LIST*
D10*
%TO.C,SW412*%
X109855000Y-117580000D03*
D11*
X104855000Y-117580000D03*
X107355000Y-117580000D03*
D12*
X112955000Y-125080000D03*
X101755000Y-125080000D03*
D11*
X104855000Y-132080000D03*
X109855000Y-132080000D03*
%TD*%
D13*
%TO.C,H104*%
X132500000Y-135060000D03*
X133202944Y-133362944D03*
X133202944Y-136757056D03*
X134900000Y-132660000D03*
D14*
X134900000Y-135060000D03*
D13*
X134900000Y-137460000D03*
X136597056Y-133362944D03*
X136597056Y-136757056D03*
X137300000Y-135060000D03*
%TD*%
D11*
%TO.C,TP205*%
X43180000Y-124460000D03*
%TD*%
D15*
%TO.C,D801*%
X84313500Y-121158000D03*
X82738500Y-121158000D03*
%TD*%
D16*
%TO.C,C203*%
X59817000Y-133526000D03*
X59817000Y-136476000D03*
%TD*%
D17*
%TO.C,C402*%
X93726000Y-115598000D03*
X93726000Y-116558000D03*
%TD*%
D18*
%TO.C,R209*%
X72773000Y-136652000D03*
X71753000Y-136652000D03*
%TD*%
D13*
%TO.C,H101*%
X40500000Y-66060000D03*
X41202944Y-64362944D03*
X41202944Y-67757056D03*
X42900000Y-63660000D03*
D14*
X42900000Y-66060000D03*
D13*
X42900000Y-68460000D03*
X44597056Y-64362944D03*
X44597056Y-67757056D03*
X45300000Y-66060000D03*
%TD*%
D19*
%TO.C,Q201*%
X51048500Y-129347000D03*
X51048500Y-127447000D03*
X48773500Y-128397000D03*
%TD*%
D20*
%TO.C,D201*%
X46990000Y-127609500D03*
X46990000Y-129184500D03*
%TD*%
D21*
%TO.C,D402*%
X118554487Y-99565892D03*
X118935513Y-101094108D03*
%TD*%
D22*
%TO.C,R814*%
X81153000Y-120902000D03*
X81153000Y-121922000D03*
%TD*%
D23*
%TO.C,J402*%
X82551500Y-71945500D03*
D24*
X85091500Y-71945500D03*
X87631500Y-71945500D03*
X90171500Y-71945500D03*
X92711500Y-71945500D03*
X95251500Y-71945500D03*
X82551500Y-69405500D03*
X85091500Y-69405500D03*
X87631500Y-69405500D03*
X90171500Y-69405500D03*
X92711500Y-69405500D03*
X95251500Y-69405500D03*
%TD*%
D21*
%TO.C,D401*%
X116014487Y-100200892D03*
X116395513Y-101729108D03*
%TD*%
D25*
%TO.C,R806*%
X91948000Y-129923000D03*
X91948000Y-128903000D03*
%TD*%
D11*
%TO.C,TP202*%
X54610000Y-124460000D03*
%TD*%
%TO.C,SW409*%
X126925000Y-84745000D03*
X133425000Y-84745000D03*
X126925000Y-89245000D03*
X133425000Y-89245000D03*
%TD*%
D16*
%TO.C,C801*%
X81788000Y-133526000D03*
X81788000Y-136476000D03*
%TD*%
D22*
%TO.C,R202*%
X50038000Y-130681000D03*
X50038000Y-131701000D03*
%TD*%
D21*
%TO.C,D404*%
X123634487Y-98295892D03*
X124015513Y-99824108D03*
%TD*%
D25*
%TO.C,R807*%
X88900000Y-129923000D03*
X88900000Y-128903000D03*
%TD*%
D16*
%TO.C,C206*%
X76581000Y-133526000D03*
X76581000Y-136476000D03*
%TD*%
D26*
%TO.C,R207*%
X73785000Y-136652000D03*
X74805000Y-136652000D03*
%TD*%
D22*
%TO.C,R210*%
X46990000Y-130681000D03*
X46990000Y-131701000D03*
%TD*%
D27*
%TO.C,L203*%
X73532000Y-130302000D03*
X76582000Y-130302000D03*
%TD*%
D18*
%TO.C,R417*%
X98808000Y-64770000D03*
X97788000Y-64770000D03*
%TD*%
D23*
%TO.C,J405*%
X76200000Y-71374000D03*
D28*
X78740000Y-71374000D03*
%TD*%
D29*
%TO.C,U502*%
X90020000Y-108100000D03*
X90020000Y-107100000D03*
X90020000Y-106100000D03*
X90020000Y-105100000D03*
X90020000Y-104100000D03*
X90020000Y-103100000D03*
X90020000Y-102100000D03*
X90020000Y-101100000D03*
X90020000Y-100100000D03*
X90020000Y-99100000D03*
X90020000Y-98100000D03*
X90020000Y-97100000D03*
X90020000Y-96100000D03*
X90020000Y-95100000D03*
X91020000Y-108100000D03*
X91020000Y-107100000D03*
X91020000Y-106100000D03*
X91020000Y-105100000D03*
X91020000Y-104100000D03*
X91020000Y-103100000D03*
X91020000Y-102100000D03*
X91020000Y-101100000D03*
X91020000Y-100100000D03*
X91020000Y-99100000D03*
X91020000Y-98100000D03*
X91020000Y-97100000D03*
X91020000Y-96100000D03*
X91020000Y-95100000D03*
X92020000Y-108100000D03*
X92020000Y-107100000D03*
X92020000Y-106100000D03*
X92020000Y-105100000D03*
X92020000Y-104100000D03*
X92020000Y-103100000D03*
X92020000Y-102100000D03*
X92020000Y-101100000D03*
X92020000Y-100100000D03*
X92020000Y-99100000D03*
X92020000Y-98100000D03*
X92020000Y-97100000D03*
X92020000Y-96100000D03*
X92020000Y-95100000D03*
X93020000Y-108100000D03*
X93020000Y-107100000D03*
X93020000Y-106100000D03*
X93020000Y-105100000D03*
X93020000Y-104100000D03*
X93020000Y-103100000D03*
X93020000Y-102100000D03*
X93020000Y-101100000D03*
X93020000Y-100100000D03*
X93020000Y-99100000D03*
X93020000Y-98100000D03*
X93020000Y-97100000D03*
X93020000Y-96100000D03*
X93020000Y-95100000D03*
X94020000Y-108100000D03*
X94020000Y-107100000D03*
X94020000Y-106100000D03*
X94020000Y-105100000D03*
X94020000Y-104100000D03*
X94020000Y-103100000D03*
X94020000Y-102100000D03*
X94020000Y-101100000D03*
X94020000Y-100100000D03*
X94020000Y-99100000D03*
X94020000Y-98100000D03*
X94020000Y-97100000D03*
X94020000Y-96100000D03*
X94020000Y-95100000D03*
X95020000Y-108100000D03*
X95020000Y-107100000D03*
X95020000Y-106100000D03*
X95020000Y-105100000D03*
X95020000Y-104100000D03*
X95020000Y-103100000D03*
X95020000Y-102100000D03*
X95020000Y-101100000D03*
X95020000Y-100100000D03*
X95020000Y-99100000D03*
X95020000Y-98100000D03*
X95020000Y-97100000D03*
X95020000Y-96100000D03*
X95020000Y-95100000D03*
X96020000Y-108100000D03*
X96020000Y-107100000D03*
X96020000Y-106100000D03*
X96020000Y-105100000D03*
X96020000Y-104100000D03*
X96020000Y-103100000D03*
X96020000Y-102100000D03*
X96020000Y-101100000D03*
X96020000Y-100100000D03*
X96020000Y-99100000D03*
X96020000Y-98100000D03*
X96020000Y-97100000D03*
X96020000Y-96100000D03*
X96020000Y-95100000D03*
X97020000Y-108100000D03*
X97020000Y-107100000D03*
X97020000Y-106100000D03*
X97020000Y-105100000D03*
X97020000Y-104100000D03*
X97020000Y-103100000D03*
X97020000Y-102100000D03*
X97020000Y-101100000D03*
X97020000Y-100100000D03*
X97020000Y-99100000D03*
X97020000Y-98100000D03*
X97020000Y-97100000D03*
X97020000Y-96100000D03*
X97020000Y-95100000D03*
X98020000Y-108100000D03*
X98020000Y-107100000D03*
X98020000Y-106100000D03*
X98020000Y-105100000D03*
X98020000Y-104100000D03*
X98020000Y-103100000D03*
X98020000Y-102100000D03*
X98020000Y-101100000D03*
X98020000Y-100100000D03*
X98020000Y-99100000D03*
X98020000Y-98100000D03*
X98020000Y-97100000D03*
X98020000Y-96100000D03*
X98020000Y-95100000D03*
X99020000Y-108100000D03*
X99020000Y-107100000D03*
X99020000Y-106100000D03*
X99020000Y-105100000D03*
X99020000Y-104100000D03*
X99020000Y-103100000D03*
X99020000Y-102100000D03*
X99020000Y-101100000D03*
X99020000Y-100100000D03*
X99020000Y-99100000D03*
X99020000Y-98100000D03*
X99020000Y-97100000D03*
X99020000Y-96100000D03*
X99020000Y-95100000D03*
X100020000Y-108100000D03*
X100020000Y-107100000D03*
X100020000Y-106100000D03*
X100020000Y-105100000D03*
X100020000Y-104100000D03*
X100020000Y-103100000D03*
X100020000Y-102100000D03*
X100020000Y-101100000D03*
X100020000Y-100100000D03*
X100020000Y-99100000D03*
X100020000Y-98100000D03*
X100020000Y-97100000D03*
X100020000Y-96100000D03*
X100020000Y-95100000D03*
X101020000Y-108100000D03*
X101020000Y-107100000D03*
X101020000Y-106100000D03*
X101020000Y-105100000D03*
X101020000Y-104100000D03*
X101020000Y-103100000D03*
X101020000Y-102100000D03*
X101020000Y-101100000D03*
X101020000Y-100100000D03*
X101020000Y-99100000D03*
X101020000Y-98100000D03*
X101020000Y-97100000D03*
X101020000Y-96100000D03*
X101020000Y-95100000D03*
X102020000Y-108100000D03*
X102020000Y-107100000D03*
X102020000Y-106100000D03*
X102020000Y-105100000D03*
X102020000Y-104100000D03*
X102020000Y-103100000D03*
X102020000Y-102100000D03*
X102020000Y-101100000D03*
X102020000Y-100100000D03*
X102020000Y-99100000D03*
X102020000Y-98100000D03*
X102020000Y-97100000D03*
X102020000Y-96100000D03*
X102020000Y-95100000D03*
X103020000Y-108100000D03*
X103020000Y-107100000D03*
X103020000Y-106100000D03*
X103020000Y-105100000D03*
X103020000Y-104100000D03*
X103020000Y-103100000D03*
X103020000Y-102100000D03*
X103020000Y-101100000D03*
X103020000Y-100100000D03*
X103020000Y-99100000D03*
X103020000Y-98100000D03*
X103020000Y-97100000D03*
X103020000Y-96100000D03*
X103020000Y-95100000D03*
%TD*%
D23*
%TO.C,J403*%
X105411500Y-71945500D03*
D24*
X107951500Y-71945500D03*
X110491500Y-71945500D03*
X113031500Y-71945500D03*
X115571500Y-71945500D03*
X118111500Y-71945500D03*
X105411500Y-69405500D03*
X107951500Y-69405500D03*
X110491500Y-69405500D03*
X113031500Y-69405500D03*
X115571500Y-69405500D03*
X118111500Y-69405500D03*
%TD*%
D23*
%TO.C,J401*%
X59691500Y-71945500D03*
D24*
X62231500Y-71945500D03*
X64771500Y-71945500D03*
X67311500Y-71945500D03*
X69851500Y-71945500D03*
X72391500Y-71945500D03*
X59691500Y-69405500D03*
X62231500Y-69405500D03*
X64771500Y-69405500D03*
X67311500Y-69405500D03*
X69851500Y-69405500D03*
X72391500Y-69405500D03*
%TD*%
D11*
%TO.C,TP902*%
X41402000Y-107061000D03*
%TD*%
D30*
%TO.C,D501*%
X128778000Y-130708500D03*
X128778000Y-129133500D03*
%TD*%
D31*
%TO.C,X401*%
X95313000Y-114080000D03*
X95313000Y-111980000D03*
X93663000Y-111980000D03*
X93663000Y-114080000D03*
%TD*%
D16*
%TO.C,C201*%
X49657000Y-133526000D03*
X49657000Y-136476000D03*
%TD*%
D18*
%TO.C,R203*%
X52453000Y-136652000D03*
X51433000Y-136652000D03*
%TD*%
D27*
%TO.C,L201*%
X53212000Y-130302000D03*
X56262000Y-130302000D03*
%TD*%
D11*
%TO.C,TP203*%
X58420000Y-124460000D03*
%TD*%
D21*
%TO.C,D405*%
X126174487Y-97660892D03*
X126555513Y-99189108D03*
%TD*%
D32*
%TO.C,U401*%
X80010000Y-87597500D03*
D33*
X82550000Y-87597500D03*
X85090000Y-87597500D03*
X87630000Y-87597500D03*
D34*
X95250000Y-77437500D03*
D33*
X90170000Y-87597500D03*
X92710000Y-87597500D03*
X95250000Y-87597500D03*
X97790000Y-87597500D03*
X92710000Y-77437500D03*
X87630000Y-77437500D03*
X97790000Y-77437500D03*
X85090000Y-77437500D03*
D34*
X90170000Y-77437500D03*
D33*
X82550000Y-77437500D03*
X80010000Y-77437500D03*
%TD*%
D11*
%TO.C,TP204*%
X46990000Y-124460000D03*
%TD*%
%TO.C,SW408*%
X75640000Y-115915000D03*
X69140000Y-115915000D03*
X75640000Y-111415000D03*
X69140000Y-111415000D03*
%TD*%
%TO.C,SW411*%
X61520000Y-119035000D03*
X68020000Y-119035000D03*
X61520000Y-123535000D03*
X68020000Y-123535000D03*
%TD*%
%TO.C,TP201*%
X50800000Y-124460000D03*
%TD*%
D35*
%TO.C,U1002*%
X68772000Y-97663000D03*
X68772000Y-98933000D03*
X68772000Y-100203000D03*
X68772000Y-101473000D03*
X73722000Y-101473000D03*
X73722000Y-100203000D03*
X73722000Y-98933000D03*
X73722000Y-97663000D03*
%TD*%
D18*
%TO.C,R201*%
X54485000Y-136652000D03*
X53465000Y-136652000D03*
%TD*%
D16*
%TO.C,C202*%
X56261000Y-133526000D03*
X56261000Y-136476000D03*
%TD*%
D18*
%TO.C,R419*%
X98808000Y-66802000D03*
X97788000Y-66802000D03*
%TD*%
D13*
%TO.C,H102*%
X132500000Y-66060000D03*
X133202944Y-64362944D03*
X133202944Y-67757056D03*
X134900000Y-63660000D03*
D14*
X134900000Y-66060000D03*
D13*
X134900000Y-68460000D03*
X136597056Y-64362944D03*
X136597056Y-67757056D03*
X137300000Y-66060000D03*
%TD*%
D25*
%TO.C,R205*%
X58039000Y-134749000D03*
X58039000Y-133729000D03*
%TD*%
D18*
%TO.C,R206*%
X62613000Y-136652000D03*
X61593000Y-136652000D03*
%TD*%
D21*
%TO.C,D408*%
X133794487Y-95755892D03*
X134175513Y-97284108D03*
%TD*%
D36*
%TO.C,SW401*%
X48260000Y-80010000D03*
D37*
X48260000Y-77470000D03*
X48260000Y-74930000D03*
X48260000Y-72390000D03*
X40640000Y-72390000D03*
X40640000Y-74930000D03*
X40640000Y-77470000D03*
X40640000Y-80010000D03*
%TD*%
D13*
%TO.C,H103*%
X40500000Y-135060000D03*
X41202944Y-133362944D03*
X41202944Y-136757056D03*
X42900000Y-132660000D03*
D14*
X42900000Y-135060000D03*
D13*
X42900000Y-137460000D03*
X44597056Y-133362944D03*
X44597056Y-136757056D03*
X45300000Y-135060000D03*
%TD*%
D16*
%TO.C,C204*%
X66421000Y-133526000D03*
X66421000Y-136476000D03*
%TD*%
D11*
%TO.C,TP901*%
X41402000Y-103739500D03*
%TD*%
D19*
%TO.C,U202*%
X64256500Y-135316000D03*
X64256500Y-134366000D03*
X64256500Y-133416000D03*
X61981500Y-133416000D03*
X61981500Y-134366000D03*
X61981500Y-135316000D03*
%TD*%
D38*
%TO.C,Y801*%
X82995000Y-127474000D03*
X82995000Y-129574000D03*
X84645000Y-129574000D03*
X84645000Y-127474000D03*
%TD*%
D11*
%TO.C,SW406*%
X68020000Y-108295000D03*
X61520000Y-108295000D03*
X68020000Y-103795000D03*
X61520000Y-103795000D03*
%TD*%
D36*
%TO.C,SW402*%
X129540000Y-72390000D03*
D37*
X129540000Y-74930000D03*
X129540000Y-77470000D03*
X129540000Y-80010000D03*
X137160000Y-80010000D03*
X137160000Y-77470000D03*
X137160000Y-74930000D03*
X137160000Y-72390000D03*
%TD*%
D18*
%TO.C,R421*%
X98808000Y-65786000D03*
X97788000Y-65786000D03*
%TD*%
D11*
%TO.C,TP903*%
X41402000Y-110363000D03*
%TD*%
D19*
%TO.C,U201*%
X54096500Y-135316000D03*
X54096500Y-134366000D03*
X54096500Y-133416000D03*
X51821500Y-133416000D03*
X51821500Y-134366000D03*
X51821500Y-135316000D03*
%TD*%
D39*
%TO.C,J801*%
X87280000Y-132777000D03*
X93060000Y-132777000D03*
D40*
X86970000Y-131702000D03*
X87770000Y-131702000D03*
D41*
X88920000Y-131702000D03*
X89920000Y-131702000D03*
X90420000Y-131702000D03*
X91420000Y-131702000D03*
D40*
X92570000Y-131702000D03*
X93370000Y-131702000D03*
X93370000Y-131702000D03*
X92570000Y-131702000D03*
D41*
X91920000Y-131702000D03*
X90920000Y-131702000D03*
X89420000Y-131702000D03*
X88420000Y-131702000D03*
D40*
X87770000Y-131702000D03*
X86970000Y-131702000D03*
D42*
X85060000Y-132277000D03*
X85060000Y-136207000D03*
D43*
X85850000Y-132277000D03*
D44*
X85850000Y-136457000D03*
D43*
X94490000Y-132277000D03*
D44*
X94490000Y-136457000D03*
D42*
X95280000Y-132277000D03*
X95280000Y-136207000D03*
D11*
X96139000Y-136207000D03*
%TD*%
D45*
%TO.C,U802*%
X79310000Y-124587000D03*
X79310000Y-123317000D03*
X79310000Y-122047000D03*
X79310000Y-120777000D03*
X74360000Y-120777000D03*
X74360000Y-122047000D03*
X74360000Y-123317000D03*
X74360000Y-124587000D03*
%TD*%
D21*
%TO.C,D406*%
X128714487Y-97025892D03*
X129095513Y-98554108D03*
%TD*%
D27*
%TO.C,L202*%
X63372000Y-130302000D03*
X66422000Y-130302000D03*
%TD*%
D46*
%TO.C,U1001*%
X76563000Y-97663000D03*
D35*
X78613000Y-97663000D03*
D46*
X76563000Y-98933000D03*
D35*
X78613000Y-98933000D03*
D46*
X76563000Y-100203000D03*
D35*
X78613000Y-100203000D03*
D46*
X76563000Y-101473000D03*
D35*
X78613000Y-101473000D03*
X83563000Y-101473000D03*
X83563000Y-100203000D03*
X83563000Y-98933000D03*
X83563000Y-97663000D03*
%TD*%
D19*
%TO.C,U203*%
X74416500Y-135316000D03*
X74416500Y-134366000D03*
X74416500Y-133416000D03*
X72141500Y-133416000D03*
X72141500Y-134366000D03*
X72141500Y-135316000D03*
%TD*%
D33*
%TO.C,SW413*%
X52705000Y-98262000D03*
D34*
X52705000Y-89662000D03*
D33*
X43975000Y-91462000D03*
X43975000Y-93962000D03*
X43975000Y-96462000D03*
X55205000Y-85232000D03*
X52705000Y-85232000D03*
X50205000Y-85232000D03*
D47*
X58455000Y-97212000D03*
X58455000Y-90712000D03*
X62955000Y-97212000D03*
X62955000Y-90712000D03*
D48*
X47705000Y-100287000D03*
X47705000Y-87637000D03*
X57705000Y-100287000D03*
X57705000Y-87637000D03*
%TD*%
D49*
%TO.C,U801*%
X87055000Y-127005000D03*
X87555000Y-127005000D03*
X88055000Y-127005000D03*
X88555000Y-127005000D03*
X89055000Y-127005000D03*
X89555000Y-127005000D03*
X90055000Y-127005000D03*
X90555000Y-127005000D03*
X91055000Y-127005000D03*
X91555000Y-127005000D03*
X92055000Y-127005000D03*
X92555000Y-127005000D03*
X93055000Y-127005000D03*
X93555000Y-127005000D03*
X94055000Y-127005000D03*
X94555000Y-127005000D03*
D50*
X95255000Y-126305000D03*
X95255000Y-125805000D03*
X95255000Y-125305000D03*
X95255000Y-124805000D03*
X95255000Y-124305000D03*
X95255000Y-123805000D03*
X95255000Y-123305000D03*
X95255000Y-122805000D03*
X95255000Y-122305000D03*
X95255000Y-121805000D03*
X95255000Y-121305000D03*
X95255000Y-120805000D03*
X95255000Y-120305000D03*
X95255000Y-119805000D03*
X95255000Y-119305000D03*
X95255000Y-118805000D03*
D49*
X94555000Y-118105000D03*
X94055000Y-118105000D03*
X93555000Y-118105000D03*
X93055000Y-118105000D03*
X92555000Y-118105000D03*
X92055000Y-118105000D03*
X91555000Y-118105000D03*
X91055000Y-118105000D03*
X90555000Y-118105000D03*
X90055000Y-118105000D03*
X89555000Y-118105000D03*
X89055000Y-118105000D03*
X88555000Y-118105000D03*
X88055000Y-118105000D03*
X87555000Y-118105000D03*
X87055000Y-118105000D03*
D50*
X86355000Y-118805000D03*
X86355000Y-119305000D03*
X86355000Y-119805000D03*
X86355000Y-120305000D03*
X86355000Y-120805000D03*
X86355000Y-121305000D03*
X86355000Y-121805000D03*
X86355000Y-122305000D03*
X86355000Y-122805000D03*
X86355000Y-123305000D03*
X86355000Y-123805000D03*
X86355000Y-124305000D03*
X86355000Y-124805000D03*
X86355000Y-125305000D03*
X86355000Y-125805000D03*
X86355000Y-126305000D03*
D51*
X90805000Y-122555000D03*
%TD*%
D11*
%TO.C,SW405*%
X119940000Y-118400000D03*
X126440000Y-118400000D03*
X119940000Y-122900000D03*
X126440000Y-122900000D03*
%TD*%
D16*
%TO.C,C207*%
X78994000Y-133526000D03*
X78994000Y-136476000D03*
%TD*%
D26*
%TO.C,R204*%
X63625000Y-136652000D03*
X64645000Y-136652000D03*
%TD*%
D18*
%TO.C,R420*%
X98808000Y-67818000D03*
X97788000Y-67818000D03*
%TD*%
D11*
%TO.C,SW407*%
X60400000Y-115915000D03*
X53900000Y-115915000D03*
X60400000Y-111415000D03*
X53900000Y-111415000D03*
%TD*%
D25*
%TO.C,R805*%
X97536000Y-132844000D03*
X97536000Y-131824000D03*
%TD*%
D11*
%TO.C,SW501*%
X119940000Y-127290000D03*
X126440000Y-127290000D03*
X119940000Y-131790000D03*
X126440000Y-131790000D03*
%TD*%
%TO.C,SW410*%
X113590000Y-89190000D03*
X120090000Y-89190000D03*
X113590000Y-93690000D03*
X120090000Y-93690000D03*
%TD*%
D25*
%TO.C,R208*%
X68199000Y-134749000D03*
X68199000Y-133729000D03*
%TD*%
D21*
%TO.C,D407*%
X131254487Y-96390892D03*
X131635513Y-97919108D03*
%TD*%
D18*
%TO.C,R416*%
X98808000Y-63754000D03*
X97788000Y-63754000D03*
%TD*%
%TO.C,R211*%
X49024000Y-130738000D03*
X48004000Y-130738000D03*
%TD*%
D21*
%TO.C,D403*%
X121094487Y-98930892D03*
X121475513Y-100459108D03*
%TD*%
D11*
%TO.C,TP904*%
X41402000Y-113665000D03*
%TD*%
D16*
%TO.C,C205*%
X69977000Y-133526000D03*
X69977000Y-136476000D03*
%TD*%
D15*
%TO.C,D802*%
X84313500Y-122682000D03*
X82738500Y-122682000D03*
%TD*%
D39*
%TO.C,J404*%
X86010000Y-65470000D03*
X91790000Y-65470000D03*
D44*
X84580000Y-61790000D03*
D43*
X84580000Y-65970000D03*
D44*
X93220000Y-61790000D03*
D43*
X93220000Y-65970000D03*
%TD*%
D52*
%TO.C,SW403*%
X54740285Y-64081632D03*
X47969145Y-65895953D03*
D47*
X52888418Y-62000000D03*
X48541752Y-63164686D03*
%TD*%
D52*
%TO.C,SW404*%
X129741931Y-66065596D03*
X122970791Y-64251275D03*
D47*
X129178983Y-63336917D03*
X124832317Y-62172231D03*
%TD*%
G36*
X43830677Y-83204685D02*
G01*
X43851319Y-83221319D01*
X44540681Y-83910681D01*
X44574166Y-83972004D01*
X44577000Y-83998362D01*
X44577000Y-86308638D01*
X44557315Y-86375677D01*
X44540681Y-86396319D01*
X43978319Y-86958681D01*
X43916996Y-86992166D01*
X43890638Y-86995000D01*
X39024000Y-86995000D01*
X38956961Y-86975315D01*
X38911206Y-86922511D01*
X38900000Y-86871000D01*
X38900000Y-83309000D01*
X38919685Y-83241961D01*
X38972489Y-83196206D01*
X39024000Y-83185000D01*
X43763638Y-83185000D01*
X43830677Y-83204685D01*
G37*
M02*
