%TF.GenerationSoftware,KiCad,Pcbnew,10.0.0*%
%TF.CreationDate,2026-03-27T10:38:15+01:00*%
%TF.ProjectId,FPGA-Devel,46504741-2d44-4657-9665-6c2e6b696361,rev?*%
%TF.SameCoordinates,Original*%
%TF.FileFunction,Paste,Top*%
%TF.FilePolarity,Positive*%
%FSLAX46Y46*%
G04 Gerber Fmt 4.6, Leading zero omitted, Abs format (unit mm)*
G04 Created by KiCad (PCBNEW 10.0.0) date 2026-03-27 10:38:15*
%MOMM*%
%LPD*%
G01*
G04 APERTURE LIST*
G04 Aperture macros list*
%AMRoundRect*
0 Rectangle with rounded corners*
0 $1 Rounding radius*
0 $2 $3 $4 $5 $6 $7 $8 $9 X,Y pos of 4 corners*
0 Add a 4 corners polygon primitive as box body*
4,1,4,$2,$3,$4,$5,$6,$7,$8,$9,$2,$3,0*
0 Add four circle primitives for the rounded corners*
1,1,$1+$1,$2,$3*
1,1,$1+$1,$4,$5*
1,1,$1+$1,$6,$7*
1,1,$1+$1,$8,$9*
0 Add four rect primitives between the rounded corners*
20,1,$1+$1,$2,$3,$4,$5,0*
20,1,$1+$1,$4,$5,$6,$7,0*
20,1,$1+$1,$6,$7,$8,$9,0*
20,1,$1+$1,$8,$9,$2,$3,0*%
G04 Aperture macros list end*
%ADD10RoundRect,0.218750X0.218750X0.256250X-0.218750X0.256250X-0.218750X-0.256250X0.218750X-0.256250X0*%
%ADD11RoundRect,0.250000X-0.650000X0.325000X-0.650000X-0.325000X0.650000X-0.325000X0.650000X0.325000X0*%
%ADD12RoundRect,0.140000X-0.170000X0.140000X-0.170000X-0.140000X0.170000X-0.140000X0.170000X0.140000X0*%
%ADD13RoundRect,0.135000X0.135000X0.185000X-0.135000X0.185000X-0.135000X-0.185000X0.135000X-0.185000X0*%
%ADD14RoundRect,0.150000X0.512500X0.150000X-0.512500X0.150000X-0.512500X-0.150000X0.512500X-0.150000X0*%
%ADD15RoundRect,0.218750X-0.256250X0.218750X-0.256250X-0.218750X0.256250X-0.218750X0.256250X0.218750X0*%
%ADD16RoundRect,0.218750X-0.301559X0.150260X-0.195718X-0.274245X0.301559X-0.150260X0.195718X0.274245X0*%
%ADD17RoundRect,0.135000X-0.185000X0.135000X-0.185000X-0.135000X0.185000X-0.135000X0.185000X0.135000X0*%
%ADD18RoundRect,0.135000X0.185000X-0.135000X0.185000X0.135000X-0.185000X0.135000X-0.185000X-0.135000X0*%
%ADD19RoundRect,0.135000X-0.135000X-0.185000X0.135000X-0.185000X0.135000X0.185000X-0.135000X0.185000X0*%
%ADD20R,1.500000X3.600000*%
%ADD21C,0.400000*%
%ADD22RoundRect,0.218750X0.256250X-0.218750X0.256250X0.218750X-0.256250X0.218750X-0.256250X-0.218750X0*%
%ADD23RoundRect,0.250000X0.300000X-0.400000X0.300000X0.400000X-0.300000X0.400000X-0.300000X-0.400000X0*%
%ADD24RoundRect,0.150000X-0.825000X-0.150000X0.825000X-0.150000X0.825000X0.150000X-0.825000X0.150000X0*%
%ADD25RoundRect,0.250000X-0.300000X0.400000X-0.300000X-0.400000X0.300000X-0.400000X0.300000X0.400000X0*%
%ADD26RoundRect,0.150000X-0.150000X-0.425000X0.150000X-0.425000X0.150000X0.425000X-0.150000X0.425000X0*%
%ADD27RoundRect,0.075000X-0.075000X-0.500000X0.075000X-0.500000X0.075000X0.500000X-0.075000X0.500000X0*%
%ADD28RoundRect,0.250000X-0.840000X-0.750000X0.840000X-0.750000X0.840000X0.750000X-0.840000X0.750000X0*%
%ADD29C,2.000000*%
%ADD30RoundRect,0.150000X0.825000X0.150000X-0.825000X0.150000X-0.825000X-0.150000X0.825000X-0.150000X0*%
%ADD31RoundRect,0.150000X-0.800000X-0.150000X0.800000X-0.150000X0.800000X0.150000X-0.800000X0.150000X0*%
%ADD32RoundRect,0.250000X0.335000X-0.335000X0.335000X0.335000X-0.335000X0.335000X-0.335000X-0.335000X0*%
%ADD33RoundRect,0.062500X0.062500X-0.337500X0.062500X0.337500X-0.062500X0.337500X-0.062500X-0.337500X0*%
%ADD34RoundRect,0.062500X0.337500X-0.062500X0.337500X0.062500X-0.337500X0.062500X-0.337500X-0.062500X0*%
G04 APERTURE END LIST*
D10*
%TO.C,D801*%
X84313500Y-121158000D03*
X82738500Y-121158000D03*
%TD*%
D11*
%TO.C,C203*%
X59817000Y-133526000D03*
X59817000Y-136476000D03*
%TD*%
D12*
%TO.C,C402*%
X93726000Y-115598000D03*
X93726000Y-116558000D03*
%TD*%
D13*
%TO.C,R209*%
X72773000Y-136652000D03*
X71753000Y-136652000D03*
%TD*%
D14*
%TO.C,Q201*%
X51048500Y-129347000D03*
X51048500Y-127447000D03*
X48773500Y-128397000D03*
%TD*%
D15*
%TO.C,D201*%
X46990000Y-127609500D03*
X46990000Y-129184500D03*
%TD*%
D16*
%TO.C,D402*%
X118554487Y-99565892D03*
X118935513Y-101094108D03*
%TD*%
D17*
%TO.C,R814*%
X81153000Y-120902000D03*
X81153000Y-121922000D03*
%TD*%
D16*
%TO.C,D401*%
X116014487Y-100200892D03*
X116395513Y-101729108D03*
%TD*%
D18*
%TO.C,R806*%
X91948000Y-129923000D03*
X91948000Y-128903000D03*
%TD*%
D11*
%TO.C,C801*%
X81788000Y-133526000D03*
X81788000Y-136476000D03*
%TD*%
D17*
%TO.C,R202*%
X50038000Y-130681000D03*
X50038000Y-131701000D03*
%TD*%
D16*
%TO.C,D404*%
X123634487Y-98295892D03*
X124015513Y-99824108D03*
%TD*%
D18*
%TO.C,R807*%
X88900000Y-129923000D03*
X88900000Y-128903000D03*
%TD*%
D11*
%TO.C,C206*%
X76581000Y-133526000D03*
X76581000Y-136476000D03*
%TD*%
D19*
%TO.C,R207*%
X73785000Y-136652000D03*
X74805000Y-136652000D03*
%TD*%
D17*
%TO.C,R210*%
X46990000Y-130681000D03*
X46990000Y-131701000D03*
%TD*%
D20*
%TO.C,L203*%
X73532000Y-130302000D03*
X76582000Y-130302000D03*
%TD*%
D13*
%TO.C,R417*%
X98808000Y-64770000D03*
X97788000Y-64770000D03*
%TD*%
D21*
%TO.C,U502*%
X90020000Y-108100000D03*
X90020000Y-107100000D03*
X90020000Y-106100000D03*
X90020000Y-105100000D03*
X90020000Y-104100000D03*
X90020000Y-103100000D03*
X90020000Y-102100000D03*
X90020000Y-101100000D03*
X90020000Y-100100000D03*
X90020000Y-99100000D03*
X90020000Y-98100000D03*
X90020000Y-97100000D03*
X90020000Y-96100000D03*
X90020000Y-95100000D03*
X91020000Y-108100000D03*
X91020000Y-107100000D03*
X91020000Y-106100000D03*
X91020000Y-105100000D03*
X91020000Y-104100000D03*
X91020000Y-103100000D03*
X91020000Y-102100000D03*
X91020000Y-101100000D03*
X91020000Y-100100000D03*
X91020000Y-99100000D03*
X91020000Y-98100000D03*
X91020000Y-97100000D03*
X91020000Y-96100000D03*
X91020000Y-95100000D03*
X92020000Y-108100000D03*
X92020000Y-107100000D03*
X92020000Y-106100000D03*
X92020000Y-105100000D03*
X92020000Y-104100000D03*
X92020000Y-103100000D03*
X92020000Y-102100000D03*
X92020000Y-101100000D03*
X92020000Y-100100000D03*
X92020000Y-99100000D03*
X92020000Y-98100000D03*
X92020000Y-97100000D03*
X92020000Y-96100000D03*
X92020000Y-95100000D03*
X93020000Y-108100000D03*
X93020000Y-107100000D03*
X93020000Y-106100000D03*
X93020000Y-105100000D03*
X93020000Y-104100000D03*
X93020000Y-103100000D03*
X93020000Y-102100000D03*
X93020000Y-101100000D03*
X93020000Y-100100000D03*
X93020000Y-99100000D03*
X93020000Y-98100000D03*
X93020000Y-97100000D03*
X93020000Y-96100000D03*
X93020000Y-95100000D03*
X94020000Y-108100000D03*
X94020000Y-107100000D03*
X94020000Y-106100000D03*
X94020000Y-105100000D03*
X94020000Y-104100000D03*
X94020000Y-103100000D03*
X94020000Y-102100000D03*
X94020000Y-101100000D03*
X94020000Y-100100000D03*
X94020000Y-99100000D03*
X94020000Y-98100000D03*
X94020000Y-97100000D03*
X94020000Y-96100000D03*
X94020000Y-95100000D03*
X95020000Y-108100000D03*
X95020000Y-107100000D03*
X95020000Y-106100000D03*
X95020000Y-105100000D03*
X95020000Y-104100000D03*
X95020000Y-103100000D03*
X95020000Y-102100000D03*
X95020000Y-101100000D03*
X95020000Y-100100000D03*
X95020000Y-99100000D03*
X95020000Y-98100000D03*
X95020000Y-97100000D03*
X95020000Y-96100000D03*
X95020000Y-95100000D03*
X96020000Y-108100000D03*
X96020000Y-107100000D03*
X96020000Y-106100000D03*
X96020000Y-105100000D03*
X96020000Y-104100000D03*
X96020000Y-103100000D03*
X96020000Y-102100000D03*
X96020000Y-101100000D03*
X96020000Y-100100000D03*
X96020000Y-99100000D03*
X96020000Y-98100000D03*
X96020000Y-97100000D03*
X96020000Y-96100000D03*
X96020000Y-95100000D03*
X97020000Y-108100000D03*
X97020000Y-107100000D03*
X97020000Y-106100000D03*
X97020000Y-105100000D03*
X97020000Y-104100000D03*
X97020000Y-103100000D03*
X97020000Y-102100000D03*
X97020000Y-101100000D03*
X97020000Y-100100000D03*
X97020000Y-99100000D03*
X97020000Y-98100000D03*
X97020000Y-97100000D03*
X97020000Y-96100000D03*
X97020000Y-95100000D03*
X98020000Y-108100000D03*
X98020000Y-107100000D03*
X98020000Y-106100000D03*
X98020000Y-105100000D03*
X98020000Y-104100000D03*
X98020000Y-103100000D03*
X98020000Y-102100000D03*
X98020000Y-101100000D03*
X98020000Y-100100000D03*
X98020000Y-99100000D03*
X98020000Y-98100000D03*
X98020000Y-97100000D03*
X98020000Y-96100000D03*
X98020000Y-95100000D03*
X99020000Y-108100000D03*
X99020000Y-107100000D03*
X99020000Y-106100000D03*
X99020000Y-105100000D03*
X99020000Y-104100000D03*
X99020000Y-103100000D03*
X99020000Y-102100000D03*
X99020000Y-101100000D03*
X99020000Y-100100000D03*
X99020000Y-99100000D03*
X99020000Y-98100000D03*
X99020000Y-97100000D03*
X99020000Y-96100000D03*
X99020000Y-95100000D03*
X100020000Y-108100000D03*
X100020000Y-107100000D03*
X100020000Y-106100000D03*
X100020000Y-105100000D03*
X100020000Y-104100000D03*
X100020000Y-103100000D03*
X100020000Y-102100000D03*
X100020000Y-101100000D03*
X100020000Y-100100000D03*
X100020000Y-99100000D03*
X100020000Y-98100000D03*
X100020000Y-97100000D03*
X100020000Y-96100000D03*
X100020000Y-95100000D03*
X101020000Y-108100000D03*
X101020000Y-107100000D03*
X101020000Y-106100000D03*
X101020000Y-105100000D03*
X101020000Y-104100000D03*
X101020000Y-103100000D03*
X101020000Y-102100000D03*
X101020000Y-101100000D03*
X101020000Y-100100000D03*
X101020000Y-99100000D03*
X101020000Y-98100000D03*
X101020000Y-97100000D03*
X101020000Y-96100000D03*
X101020000Y-95100000D03*
X102020000Y-108100000D03*
X102020000Y-107100000D03*
X102020000Y-106100000D03*
X102020000Y-105100000D03*
X102020000Y-104100000D03*
X102020000Y-103100000D03*
X102020000Y-102100000D03*
X102020000Y-101100000D03*
X102020000Y-100100000D03*
X102020000Y-99100000D03*
X102020000Y-98100000D03*
X102020000Y-97100000D03*
X102020000Y-96100000D03*
X102020000Y-95100000D03*
X103020000Y-108100000D03*
X103020000Y-107100000D03*
X103020000Y-106100000D03*
X103020000Y-105100000D03*
X103020000Y-104100000D03*
X103020000Y-103100000D03*
X103020000Y-102100000D03*
X103020000Y-101100000D03*
X103020000Y-100100000D03*
X103020000Y-99100000D03*
X103020000Y-98100000D03*
X103020000Y-97100000D03*
X103020000Y-96100000D03*
X103020000Y-95100000D03*
%TD*%
D22*
%TO.C,D501*%
X128778000Y-130708500D03*
X128778000Y-129133500D03*
%TD*%
D23*
%TO.C,X401*%
X95313000Y-114080000D03*
X95313000Y-111980000D03*
X93663000Y-111980000D03*
X93663000Y-114080000D03*
%TD*%
D11*
%TO.C,C201*%
X49657000Y-133526000D03*
X49657000Y-136476000D03*
%TD*%
D13*
%TO.C,R203*%
X52453000Y-136652000D03*
X51433000Y-136652000D03*
%TD*%
D20*
%TO.C,L201*%
X53212000Y-130302000D03*
X56262000Y-130302000D03*
%TD*%
D16*
%TO.C,D405*%
X126174487Y-97660892D03*
X126555513Y-99189108D03*
%TD*%
D24*
%TO.C,U1002*%
X68772000Y-97663000D03*
X68772000Y-98933000D03*
X68772000Y-100203000D03*
X68772000Y-101473000D03*
X73722000Y-101473000D03*
X73722000Y-100203000D03*
X73722000Y-98933000D03*
X73722000Y-97663000D03*
%TD*%
D13*
%TO.C,R201*%
X54485000Y-136652000D03*
X53465000Y-136652000D03*
%TD*%
D11*
%TO.C,C202*%
X56261000Y-133526000D03*
X56261000Y-136476000D03*
%TD*%
D13*
%TO.C,R419*%
X98808000Y-66802000D03*
X97788000Y-66802000D03*
%TD*%
D18*
%TO.C,R205*%
X58039000Y-134749000D03*
X58039000Y-133729000D03*
%TD*%
D13*
%TO.C,R206*%
X62613000Y-136652000D03*
X61593000Y-136652000D03*
%TD*%
D16*
%TO.C,D408*%
X133794487Y-95755892D03*
X134175513Y-97284108D03*
%TD*%
D11*
%TO.C,C204*%
X66421000Y-133526000D03*
X66421000Y-136476000D03*
%TD*%
D14*
%TO.C,U202*%
X64256500Y-135316000D03*
X64256500Y-134366000D03*
X64256500Y-133416000D03*
X61981500Y-133416000D03*
X61981500Y-134366000D03*
X61981500Y-135316000D03*
%TD*%
D25*
%TO.C,Y801*%
X82995000Y-127474000D03*
X82995000Y-129574000D03*
X84645000Y-129574000D03*
X84645000Y-127474000D03*
%TD*%
D13*
%TO.C,R421*%
X98808000Y-65786000D03*
X97788000Y-65786000D03*
%TD*%
D14*
%TO.C,U201*%
X54096500Y-135316000D03*
X54096500Y-134366000D03*
X54096500Y-133416000D03*
X51821500Y-133416000D03*
X51821500Y-134366000D03*
X51821500Y-135316000D03*
%TD*%
D26*
%TO.C,J801*%
X86970000Y-131702000D03*
X87770000Y-131702000D03*
D27*
X88920000Y-131702000D03*
X89920000Y-131702000D03*
X90420000Y-131702000D03*
X91420000Y-131702000D03*
D26*
X92570000Y-131702000D03*
X93370000Y-131702000D03*
X93370000Y-131702000D03*
X92570000Y-131702000D03*
D27*
X91920000Y-131702000D03*
X90920000Y-131702000D03*
X89420000Y-131702000D03*
X88420000Y-131702000D03*
D26*
X87770000Y-131702000D03*
X86970000Y-131702000D03*
D28*
X85060000Y-132277000D03*
X85060000Y-136207000D03*
X95280000Y-132277000D03*
X95280000Y-136207000D03*
D29*
X96139000Y-136207000D03*
%TD*%
D30*
%TO.C,U802*%
X79310000Y-124587000D03*
X79310000Y-123317000D03*
X79310000Y-122047000D03*
X79310000Y-120777000D03*
X74360000Y-120777000D03*
X74360000Y-122047000D03*
X74360000Y-123317000D03*
X74360000Y-124587000D03*
%TD*%
D16*
%TO.C,D406*%
X128714487Y-97025892D03*
X129095513Y-98554108D03*
%TD*%
D20*
%TO.C,L202*%
X63372000Y-130302000D03*
X66422000Y-130302000D03*
%TD*%
D31*
%TO.C,U1001*%
X76563000Y-97663000D03*
D24*
X78613000Y-97663000D03*
D31*
X76563000Y-98933000D03*
D24*
X78613000Y-98933000D03*
D31*
X76563000Y-100203000D03*
D24*
X78613000Y-100203000D03*
D31*
X76563000Y-101473000D03*
D24*
X78613000Y-101473000D03*
X83563000Y-101473000D03*
X83563000Y-100203000D03*
X83563000Y-98933000D03*
X83563000Y-97663000D03*
%TD*%
D14*
%TO.C,U203*%
X74416500Y-135316000D03*
X74416500Y-134366000D03*
X74416500Y-133416000D03*
X72141500Y-133416000D03*
X72141500Y-134366000D03*
X72141500Y-135316000D03*
%TD*%
D32*
%TO.C,U801*%
X89355000Y-124005000D03*
X90805000Y-124005000D03*
X92255000Y-124005000D03*
X89355000Y-122555000D03*
X90805000Y-122555000D03*
X92255000Y-122555000D03*
X89355000Y-121105000D03*
X90805000Y-121105000D03*
X92255000Y-121105000D03*
D33*
X87055000Y-127005000D03*
X87555000Y-127005000D03*
X88055000Y-127005000D03*
X88555000Y-127005000D03*
X89055000Y-127005000D03*
X89555000Y-127005000D03*
X90055000Y-127005000D03*
X90555000Y-127005000D03*
X91055000Y-127005000D03*
X91555000Y-127005000D03*
X92055000Y-127005000D03*
X92555000Y-127005000D03*
X93055000Y-127005000D03*
X93555000Y-127005000D03*
X94055000Y-127005000D03*
X94555000Y-127005000D03*
D34*
X95255000Y-126305000D03*
X95255000Y-125805000D03*
X95255000Y-125305000D03*
X95255000Y-124805000D03*
X95255000Y-124305000D03*
X95255000Y-123805000D03*
X95255000Y-123305000D03*
X95255000Y-122805000D03*
X95255000Y-122305000D03*
X95255000Y-121805000D03*
X95255000Y-121305000D03*
X95255000Y-120805000D03*
X95255000Y-120305000D03*
X95255000Y-119805000D03*
X95255000Y-119305000D03*
X95255000Y-118805000D03*
D33*
X94555000Y-118105000D03*
X94055000Y-118105000D03*
X93555000Y-118105000D03*
X93055000Y-118105000D03*
X92555000Y-118105000D03*
X92055000Y-118105000D03*
X91555000Y-118105000D03*
X91055000Y-118105000D03*
X90555000Y-118105000D03*
X90055000Y-118105000D03*
X89555000Y-118105000D03*
X89055000Y-118105000D03*
X88555000Y-118105000D03*
X88055000Y-118105000D03*
X87555000Y-118105000D03*
X87055000Y-118105000D03*
D34*
X86355000Y-118805000D03*
X86355000Y-119305000D03*
X86355000Y-119805000D03*
X86355000Y-120305000D03*
X86355000Y-120805000D03*
X86355000Y-121305000D03*
X86355000Y-121805000D03*
X86355000Y-122305000D03*
X86355000Y-122805000D03*
X86355000Y-123305000D03*
X86355000Y-123805000D03*
X86355000Y-124305000D03*
X86355000Y-124805000D03*
X86355000Y-125305000D03*
X86355000Y-125805000D03*
X86355000Y-126305000D03*
%TD*%
D11*
%TO.C,C207*%
X78994000Y-133526000D03*
X78994000Y-136476000D03*
%TD*%
D19*
%TO.C,R204*%
X63625000Y-136652000D03*
X64645000Y-136652000D03*
%TD*%
D13*
%TO.C,R420*%
X98808000Y-67818000D03*
X97788000Y-67818000D03*
%TD*%
D18*
%TO.C,R805*%
X97536000Y-132844000D03*
X97536000Y-131824000D03*
%TD*%
%TO.C,R208*%
X68199000Y-134749000D03*
X68199000Y-133729000D03*
%TD*%
D16*
%TO.C,D407*%
X131254487Y-96390892D03*
X131635513Y-97919108D03*
%TD*%
D13*
%TO.C,R416*%
X98808000Y-63754000D03*
X97788000Y-63754000D03*
%TD*%
%TO.C,R211*%
X49024000Y-130738000D03*
X48004000Y-130738000D03*
%TD*%
D16*
%TO.C,D403*%
X121094487Y-98930892D03*
X121475513Y-100459108D03*
%TD*%
D11*
%TO.C,C205*%
X69977000Y-133526000D03*
X69977000Y-136476000D03*
%TD*%
D10*
%TO.C,D802*%
X84313500Y-122682000D03*
X82738500Y-122682000D03*
%TD*%
M02*
